<svg id="Layer_1" data-name="Layer 1" xmlns="http://www.w3.org/2000/svg" xmlns:xlink="http://www.w3.org/1999/xlink" viewBox="0 0 285 245"><defs><style>.cls-1{fill:none;}.cls-2{fill:#fff;}.cls-3{clip-path:url(#clip-path);}.cls-4{fill:#0074ff;}.cls-5{fill:#5000ce;}.cls-6{fill:#b4e500;}.cls-7{fill:#04b5b5;}.cls-8{fill:#03db7d;}.cls-9{fill:#31c600;}.cls-10{fill:#009957;}.cls-11{fill:#00eac3;}.cls-12{fill:#ef3300;}.cls-13{fill:#a0006f;}.cls-14{fill:#ff7300;}.cls-15{fill:#d04;}.cls-16{fill:#ffad00;}.cls-17{fill:#ffd600;}.cls-18{fill:#333;}</style><clipPath id="clip-path"><path class="cls-1" d="M222.87,94.73a106.8,106.8,0,0,0-43.94-48.85,97.92,97.92,0,0,0-22.1-9.36,100.58,100.58,0,0,0-25.24-3.83,88.48,88.48,0,0,0-15,.87,77.07,77.07,0,0,0-28.62,10C59.48,60.59,48.06,94,63.88,118.29a50,50,0,0,0,12,12.7c8,6,15.67,8.61,23.23,9.11,11.39.75,22.5-3.32,33.87-8L131.25,102A10,10,0,0,1,141.3,91.38h2.4a10,10,0,0,1,10,10.66l-1.32,22.4a79.73,79.73,0,0,1,19.17-4.29c10.09-.84,20.74.87,32.24,7.29a37,37,0,0,0,9.05,3.76c5.6,1.37,9.64.19,12.17-2.83C230.06,122.42,229.18,109.35,222.87,94.73ZM142.5,83.46a12.66,12.66,0,1,1,12.66-12.66A12.66,12.66,0,0,1,142.5,83.46Z"/></clipPath></defs><title>logo_idi_vertical-internalCSS</title><rect class="cls-2" width="285" height="245"/><g class="cls-3"><path class="cls-4" d="M172.4,119.55a66.07,66.07,0,0,1-6.61-11.18A82.63,82.63,0,0,1,158.69,83l-.19-1.91L157,82.32a75.55,75.55,0,0,1-11.62,8.19c-12.82,7.37-25.18,10.75-36.61,10l-.69,0-.29.63A113.35,113.35,0,0,0,98.16,140l-.07,1,1,.07c.93.06,1.88.09,2.83.09,11.88,0,23.24-4.73,35.27-9.73,11-4.58,22.4-9.32,34.49-10.31l1.79-.15Z"/><path class="cls-5" d="M108.82,100.53A45.38,45.38,0,0,1,77,84.59l-.88-1.18-.78,1.25a93.42,93.42,0,0,0-12.51,33.46l-.07.39.21.33a51.09,51.09,0,0,0,12.29,13c7.62,5.71,15.4,8.75,23.76,9.31l1,.07.07-1a111.39,111.39,0,0,1,9.51-38.23l.6-1.32Z"/><path class="cls-6" d="M223.78,94.33l-.6-1.39-1,1.1c-5.62,5.93-12.16,8.31-19.44,7.08l-1.93-.32.87,1.75a129.3,129.3,0,0,1,7,17.27l.13.41.39.18a108,108,0,0,1,15.3,8.78l.75.52.59-.7C231.1,122.73,230.32,109.44,223.78,94.33Z"/><path class="cls-7" d="M223.78,94.33C215.1,74.19,198.93,56.22,179.42,45l-1.22-.7-.26,1.38A65.43,65.43,0,0,1,172,63.34l-.35.7.59.51a121.11,121.11,0,0,1,29.41,38l.23.46.5.08a24.23,24.23,0,0,0,4,.34c6.36,0,12.15-2.7,17.2-8l.45-.48Z"/><path class="cls-8" d="M210.57,119.2a131.43,131.43,0,0,0-7.13-17.53l-.23-.46-.5-.09c-17.3-3-33.64-25.26-35.44-27.79l-.78-1.09-.82,1.06a65,65,0,0,1-8.62,9l-.39.34.05.52a84.74,84.74,0,0,0,7.28,26l.27.58h1a109.64,109.64,0,0,1,44,10.62l2.09,1Z"/><path class="cls-9" d="M225.62,127.54A110,110,0,0,0,210,118.6l-2.1-1,.72,2.21c1.21,3.69,2.3,7.59,3.25,11.61l.14.6.6.15a19.31,19.31,0,0,0,4.57.6,10.68,10.68,0,0,0,8.61-3.75l.71-.84Z"/><path class="cls-10" d="M213.86,131c-1-4.07-2.06-8-3.29-11.77l-.13-.41-.39-.18a111.77,111.77,0,0,0-44.83-10.81l-1.9,0,.66,1.41a68,68,0,0,0,6.81,11.52l.33.45.56,0c11.09-.92,21.35,1.4,31.67,7.17a38.09,38.09,0,0,0,9.3,3.86l1.58.39Z"/><path class="cls-11" d="M203.43,101.67A123.1,123.1,0,0,0,173.54,63l-1-.84L172,63.34a61.2,61.2,0,0,1-6.34,9.95l-.46.59.43.61a107.66,107.66,0,0,0,12.43,14.3c8.54,8.19,16.72,13,24.31,14.3l1.93.33Z"/><path class="cls-12" d="M179.42,45a99.22,99.22,0,0,0-22.32-9.45l-.23-.07-.24,0a179.71,179.71,0,0,0-19.44,4.95l-2.49.79,2.39,1.07a152.5,152.5,0,0,1,18.37,9.82,134.15,134.15,0,0,1,16.77,12.39l1,.84.58-1.14a67.32,67.32,0,0,0,6.13-18.19l.13-.7Z"/><path class="cls-13" d="M173.54,63a136.31,136.31,0,0,0-17-12.57l-.48-.3-.51.26a108.58,108.58,0,0,0-47.69,50.69l-.6,1.32,1.44.09c1.07.07,2.15.1,3.24.1,10.91,0,22.52-3.49,34.5-10.39a77.62,77.62,0,0,0,11.93-8.41,67,67,0,0,0,8.88-9.31,63.12,63.12,0,0,0,6.54-10.27l.35-.7Z"/><path class="cls-14" d="M157.1,35.56a101.94,101.94,0,0,0-25.49-3.87,89.6,89.6,0,0,0-15.19.88l-4.39.65,4.25,1.3a174.27,174.27,0,0,1,20.81,7.83l.35.16.37-.12A178,178,0,0,1,157,37.5l4.06-.8Z"/><path class="cls-15" d="M156.52,50.47a154.26,154.26,0,0,0-18.61-9.94l-.35-.16-.36.12a140.69,140.69,0,0,0-26.55,11.34c-15.16,8.53-27,19.58-35.25,32.83l-.36.58.4.55a46.55,46.55,0,0,0,33.25,16.74l.69,0,.29-.63a106.51,106.51,0,0,1,46.77-49.73l1.57-.8Z"/><path class="cls-16" d="M137.91,40.53a176.14,176.14,0,0,0-21.05-7.92l-.21-.07-.22,0a77.87,77.87,0,0,0-29,10.15l-1.95,1.17,2.18.65a140.78,140.78,0,0,1,23,9.05l.48.24.46-.26A138.73,138.73,0,0,1,137.8,42.39l2.49-.79Z"/><path class="cls-17" d="M111.58,51.8a142.82,142.82,0,0,0-23.35-9.19l-.42-.12-.38.23C71.83,52,60.75,66.58,57,82.59a46.54,46.54,0,0,0,6,36.25L64.42,121l.44-2.5A91.42,91.42,0,0,1,77.1,85.71c8.05-13,19.67-23.78,34.53-32.15l1.64-.92Z"/></g><path class="cls-18" d="M40.1,167,37.9,185.19H34.75L36.95,167Zm1.21-5.72a2,2,0,0,1-.19.87,2.55,2.55,0,0,1-.5.72,2.42,2.42,0,0,1-.71.49,2,2,0,0,1-.83.18,1.94,1.94,0,0,1-.81-.18,2.18,2.18,0,0,1-.69-.49,2.57,2.57,0,0,1-.48-.72,2.11,2.11,0,0,1-.18-.87,2.17,2.17,0,0,1,.18-.88,2.37,2.37,0,0,1,.49-.73,2.43,2.43,0,0,1,.7-.5,1.86,1.86,0,0,1,.81-.19,2,2,0,0,1,.83.18,2.42,2.42,0,0,1,.71.49,2.31,2.31,0,0,1,.49.74A2.21,2.21,0,0,1,41.3,161.23Z"/><path class="cls-18" d="M42.33,185.19l2.18-18.25h1.6A1,1,0,0,1,47.2,168l-.27,3.53a11.3,11.3,0,0,1,3.28-3.64A6.72,6.72,0,0,1,54,166.68a3.86,3.86,0,0,1,3.16,1.37,6.16,6.16,0,0,1,1.13,4c0,.24,0,.49,0,.74s0,.52-.07.79l-1.37,11.61h-3.2L55,173.58c0-.24,0-.47.06-.69s0-.44,0-.64a3.56,3.56,0,0,0-.55-2.19,2,2,0,0,0-1.72-.71,3.75,3.75,0,0,0-1.75.47,6.83,6.83,0,0,0-1.72,1.32,10.71,10.71,0,0,0-1.54,2.07,14.38,14.38,0,0,0-1.22,2.71l-1,9.27h-3.2Z"/><path class="cls-18" d="M72.53,183.62a8.43,8.43,0,0,1-1.68,1.09,6.77,6.77,0,0,1-1.75.57,11.15,11.15,0,0,1-2,.16,6.82,6.82,0,0,1-2.8-.54,5.54,5.54,0,0,1-2-1.52A6.73,6.73,0,0,1,61.06,181a10.33,10.33,0,0,1-.42-3,13.05,13.05,0,0,1,.69-4.25,11.89,11.89,0,0,1,1.93-3.6,9.66,9.66,0,0,1,3-2.5A7.7,7.7,0,0,1,70,166.7a6.48,6.48,0,0,1,3,.64,6.38,6.38,0,0,1,2.14,1.86l-1,1.21a.82.82,0,0,1-.27.23.71.71,0,0,1-.36.09.73.73,0,0,1-.49-.23,6.79,6.79,0,0,0-.63-.5,4,4,0,0,0-2.47-.73,4.45,4.45,0,0,0-2.35.68,6.53,6.53,0,0,0-1.93,1.85,9.41,9.41,0,0,0-1.31,2.77,12.06,12.06,0,0,0-.48,3.44,7.56,7.56,0,0,0,.25,2,4.34,4.34,0,0,0,.76,1.55,3.45,3.45,0,0,0,1.23,1,3.87,3.87,0,0,0,1.7.35,5.44,5.44,0,0,0,2.56-.6,5.11,5.11,0,0,0,.86-.55l.67-.55q.3-.25.54-.42a.86.86,0,0,1,.5-.17.76.76,0,0,1,.61.31l.79,1A16.22,16.22,0,0,1,72.53,183.62Z"/><path class="cls-18" d="M76.07,185.19l3.22-26.51h3.15l-3.22,26.51H76.07Z"/><path class="cls-18" d="M88.7,167l-1.37,11.59c0,.24,0,.47-.06.68s0,.43,0,.63a3.61,3.61,0,0,0,.55,2.2,2,2,0,0,0,1.74.72,3.7,3.7,0,0,0,1.7-.45,6.81,6.81,0,0,0,1.69-1.28,10.56,10.56,0,0,0,1.52-2,15.06,15.06,0,0,0,1.22-2.61L96.8,167H100l-2.19,18.23H96.21a1.33,1.33,0,0,1-.86-.25,1,1,0,0,1-.31-.77s0-.12,0-.32,0-.43,0-.67,0-.46.06-.67,0-.31,0-.32l.13-1.46A11.43,11.43,0,0,1,92,184.25a6.61,6.61,0,0,1-3.71,1.2,3.84,3.84,0,0,1-3.16-1.39,6.17,6.17,0,0,1-1.12-4q0-.36,0-.74c0-.25,0-.52.07-.79L85.51,167H88.7Z"/><path class="cls-18" d="M113.55,169.87a1.1,1.1,0,0,1-.29.32.62.62,0,0,1-.36.1,1,1,0,0,1-.55-.2c-.2-.13-.44-.28-.72-.44a5.83,5.83,0,0,0-1-.45,4.61,4.61,0,0,0-1.47-.21,4.56,4.56,0,0,0-1.48.23,3.63,3.63,0,0,0-1.15.62,2.75,2.75,0,0,0-.75.93,2.52,2.52,0,0,0-.26,1.13,1.73,1.73,0,0,0,.56,1.35,5.13,5.13,0,0,0,1.4.87q.84.37,1.83.71a9.41,9.41,0,0,1,1.83.86,4.66,4.66,0,0,1,1.4,1.33,3.63,3.63,0,0,1,.56,2.1,6.06,6.06,0,0,1-1.92,4.44,7,7,0,0,1-2.23,1.4,7.8,7.8,0,0,1-2.93.52,7.26,7.26,0,0,1-3.09-.62,6.43,6.43,0,0,1-2.19-1.59l.79-1.23a1.12,1.12,0,0,1,.34-.36.92.92,0,0,1,.5-.13.88.88,0,0,1,.57.25q.29.25.72.57a4.44,4.44,0,0,0,2.75.82,4.47,4.47,0,0,0,1.59-.27,3.76,3.76,0,0,0,1.21-.72,3,3,0,0,0,.76-1.05,3.21,3.21,0,0,0,.26-1.29,1.93,1.93,0,0,0-.56-1.46,4.53,4.53,0,0,0-1.4-.9c-.56-.24-1.17-.47-1.82-.68a9.15,9.15,0,0,1-1.82-.81,4.44,4.44,0,0,1-1.4-1.29,3.58,3.58,0,0,1-.56-2.11,5.61,5.61,0,0,1,.46-2.22,5.75,5.75,0,0,1,1.32-1.9,6.45,6.45,0,0,1,2.1-1.32,7.42,7.42,0,0,1,2.78-.49,7.13,7.13,0,0,1,2.89.55,6.67,6.67,0,0,1,2.15,1.49Z"/><path class="cls-18" d="M120.66,167l-2.19,18.23h-3.15L117.51,167Zm1.21-5.72a2,2,0,0,1-.19.87,2.55,2.55,0,0,1-.5.72,2.42,2.42,0,0,1-.71.49,2,2,0,0,1-.83.18,1.94,1.94,0,0,1-.81-.18,2.18,2.18,0,0,1-.69-.49,2.57,2.57,0,0,1-.48-.72,2.11,2.11,0,0,1-.18-.87,2.17,2.17,0,0,1,.18-.88,2.37,2.37,0,0,1,.49-.73,2.43,2.43,0,0,1,.7-.5,1.86,1.86,0,0,1,.81-.19,2,2,0,0,1,.83.18,2.42,2.42,0,0,1,.71.49,2.31,2.31,0,0,1,.49.74A2.2,2.2,0,0,1,121.86,161.23Z"/><path class="cls-18" d="M122.91,167h2.59a.81.81,0,0,1,.57.2.85.85,0,0,1,.27.47l2.72,11.74a11.19,11.19,0,0,1,.21,1.33q.06.67.1,1.31c.13-.43.27-.87.41-1.31a12,12,0,0,1,.54-1.34L136,167.62a1.35,1.35,0,0,1,.4-.48.91.91,0,0,1,.56-.19h2.5l-9.15,18.23h-2.68Z"/><path class="cls-18" d="M153.3,170.86a4.94,4.94,0,0,1-.49,2.19,4.54,4.54,0,0,1-1.78,1.8,13.33,13.33,0,0,1-3.56,1.4,39.14,39.14,0,0,1-5.83,1c0,.13,0,.26,0,.39V178a5.64,5.64,0,0,0,1.05,3.68,3.89,3.89,0,0,0,3.18,1.27,6,6,0,0,0,1.54-.18,6.56,6.56,0,0,0,1.21-.44,5.38,5.38,0,0,0,.94-.58l.75-.58c.23-.17.44-.32.63-.44a1.09,1.09,0,0,1,.58-.18.79.79,0,0,1,.59.31l.79,1a16.33,16.33,0,0,1-1.79,1.63,10.49,10.49,0,0,1-1.79,1.13,8,8,0,0,1-1.92.66,10.67,10.67,0,0,1-2.15.21,7.22,7.22,0,0,1-2.81-.52,5.83,5.83,0,0,1-2.1-1.49,6.67,6.67,0,0,1-1.33-2.33,9.42,9.42,0,0,1-.47-3.06,13.35,13.35,0,0,1,.3-2.8,13,13,0,0,1,.86-2.65,12,12,0,0,1,1.39-2.34,9.3,9.3,0,0,1,1.87-1.86,8.76,8.76,0,0,1,2.32-1.23,8.12,8.12,0,0,1,2.73-.45,6.57,6.57,0,0,1,2.4.4,5.06,5.06,0,0,1,1.66,1,4.06,4.06,0,0,1,1,1.35A3.61,3.61,0,0,1,153.3,170.86ZM147.79,169a4.66,4.66,0,0,0-2.09.47,5.52,5.52,0,0,0-1.69,1.29,7.93,7.93,0,0,0-1.26,1.93,11.5,11.5,0,0,0-.81,2.38,34.7,34.7,0,0,0,4.45-.78,11.06,11.06,0,0,0,2.57-1,2.49,2.49,0,0,0,1.48-2.35,1.81,1.81,0,0,0-.6-1.31,2.51,2.51,0,0,0-.82-.48A3.49,3.49,0,0,0,147.79,169Z"/><path class="cls-18" d="M174.59,185.19a1,1,0,0,1-.85-.32,1.35,1.35,0,0,1-.23-.79l.34-3.8a15,15,0,0,1-1.49,2.12,10.84,10.84,0,0,1-1.7,1.63,7.55,7.55,0,0,1-1.85,1,5.43,5.43,0,0,1-2,.37,4.28,4.28,0,0,1-3.63-1.7,8.08,8.08,0,0,1-1.29-4.94,14.58,14.58,0,0,1,.3-3,15.45,15.45,0,0,1,.87-2.83,13.86,13.86,0,0,1,1.37-2.51,10.48,10.48,0,0,1,1.78-2,8,8,0,0,1,2.13-1.33,6.14,6.14,0,0,1,2.41-.49,5.66,5.66,0,0,1,2.44.52,5.25,5.25,0,0,1,1.88,1.49l1.24-10h3.15l-3.28,26.51h-1.65Zm-6.54-2.32a3.33,3.33,0,0,0,1.74-.53,7.31,7.31,0,0,0,1.69-1.48,12.75,12.75,0,0,0,1.53-2.25,17.79,17.79,0,0,0,1.23-2.85l.6-4.82a3.83,3.83,0,0,0-1.64-1.35,5,5,0,0,0-1.93-.4,4.2,4.2,0,0,0-2.56.85,7.37,7.37,0,0,0-1.95,2.19,11.44,11.44,0,0,0-1.23,3,12.82,12.82,0,0,0-.43,3.26,5.76,5.76,0,0,0,.77,3.27A2.49,2.49,0,0,0,168.06,182.87Z"/><path class="cls-18" d="M195.2,170.86a4.94,4.94,0,0,1-.49,2.19,4.54,4.54,0,0,1-1.78,1.8,13.28,13.28,0,0,1-3.56,1.4,39.23,39.23,0,0,1-5.83,1,3.67,3.67,0,0,0,0,.39V178a5.64,5.64,0,0,0,1.05,3.68,3.9,3.9,0,0,0,3.18,1.27,6,6,0,0,0,1.54-.18,6.64,6.64,0,0,0,1.21-.44,5.4,5.4,0,0,0,.94-.58l.75-.58q.34-.26.63-.44a1.08,1.08,0,0,1,.58-.18.79.79,0,0,1,.59.31l.79,1a16.33,16.33,0,0,1-1.79,1.63,10.41,10.41,0,0,1-1.79,1.13,7.94,7.94,0,0,1-1.92.66,10.67,10.67,0,0,1-2.15.21,7.21,7.21,0,0,1-2.81-.52,5.83,5.83,0,0,1-2.1-1.49,6.65,6.65,0,0,1-1.33-2.33,9.42,9.42,0,0,1-.47-3.06,13.48,13.48,0,0,1,.3-2.8,13.08,13.08,0,0,1,.86-2.65,12.07,12.07,0,0,1,1.39-2.34,9.31,9.31,0,0,1,1.87-1.86,8.75,8.75,0,0,1,2.32-1.23,8.12,8.12,0,0,1,2.73-.45,6.55,6.55,0,0,1,2.39.4,5.06,5.06,0,0,1,1.66,1,4,4,0,0,1,1,1.35A3.56,3.56,0,0,1,195.2,170.86ZM189.69,169a4.67,4.67,0,0,0-2.09.47,5.57,5.57,0,0,0-1.69,1.29,7.86,7.86,0,0,0-1.26,1.93,11.5,11.5,0,0,0-.81,2.38,34.81,34.81,0,0,0,4.45-.78,11,11,0,0,0,2.57-1,2.8,2.8,0,0,0,1.19-1.11,2.83,2.83,0,0,0,.29-1.24,1.74,1.74,0,0,0-.15-.68,1.77,1.77,0,0,0-.46-.64,2.49,2.49,0,0,0-.82-.48A3.49,3.49,0,0,0,189.69,169Z"/><path class="cls-18" d="M208.78,169.87a1.1,1.1,0,0,1-.29.32.62.62,0,0,1-.36.1,1,1,0,0,1-.55-.2c-.2-.13-.44-.28-.72-.44a5.83,5.83,0,0,0-1-.45,4.61,4.61,0,0,0-1.48-.21,4.56,4.56,0,0,0-1.48.23,3.63,3.63,0,0,0-1.15.62,2.75,2.75,0,0,0-.75.93,2.52,2.52,0,0,0-.26,1.13,1.73,1.73,0,0,0,.56,1.35,5.13,5.13,0,0,0,1.4.87q.84.37,1.83.71a9.41,9.41,0,0,1,1.83.86,4.66,4.66,0,0,1,1.4,1.33,3.63,3.63,0,0,1,.56,2.1,6.06,6.06,0,0,1-1.92,4.44,7,7,0,0,1-2.23,1.4,7.8,7.8,0,0,1-2.93.52,7.26,7.26,0,0,1-3.09-.62,6.43,6.43,0,0,1-2.19-1.59l.79-1.23a1.12,1.12,0,0,1,.34-.36.92.92,0,0,1,.5-.13.88.88,0,0,1,.57.25q.29.25.72.57a4.44,4.44,0,0,0,2.75.82,4.47,4.47,0,0,0,1.59-.27,3.76,3.76,0,0,0,1.21-.72,3,3,0,0,0,.76-1.05,3.21,3.21,0,0,0,.26-1.29,1.93,1.93,0,0,0-.56-1.46,4.53,4.53,0,0,0-1.4-.9c-.56-.24-1.17-.47-1.82-.68a9.15,9.15,0,0,1-1.82-.81,4.44,4.44,0,0,1-1.4-1.29,3.58,3.58,0,0,1-.56-2.11,5.61,5.61,0,0,1,.46-2.22,5.75,5.75,0,0,1,1.32-1.9,6.45,6.45,0,0,1,2.1-1.32,7.42,7.42,0,0,1,2.78-.49,7.13,7.13,0,0,1,2.89.55,6.67,6.67,0,0,1,2.15,1.49Z"/><path class="cls-18" d="M215.89,167l-2.2,18.23h-3.15l2.2-18.23Zm1.21-5.72a2,2,0,0,1-.19.87,2.48,2.48,0,0,1-.5.72,2.4,2.4,0,0,1-.71.49,2,2,0,0,1-.83.18,2,2,0,0,1-.81-.18,2.17,2.17,0,0,1-.69-.49,2.58,2.58,0,0,1-.48-.72,2.14,2.14,0,0,1-.18-.87,2.21,2.21,0,0,1,.18-.88,2.43,2.43,0,0,1,1.19-1.23,1.86,1.86,0,0,1,.81-.19,2,2,0,0,1,.83.18,2.4,2.4,0,0,1,.71.49,2.32,2.32,0,0,1,.5.74A2.27,2.27,0,0,1,217.1,161.23Z"/><path class="cls-18" d="M231.52,172a6.37,6.37,0,0,1-.23,1.62,7.81,7.81,0,0,1-.51,1.33,10.43,10.43,0,0,1-.67,1.15c-.24.36-.46.72-.67,1.08a7.36,7.36,0,0,0-.51,1.11,3.54,3.54,0,0,0-.21,1.23,2.59,2.59,0,0,0,.37,1.37c.25.41.52.83.81,1.26a11.08,11.08,0,0,1,.81,1.41,4.13,4.13,0,0,1,.37,1.81,5.19,5.19,0,0,1-.59,2.42,6.34,6.34,0,0,1-1.69,2,8.34,8.34,0,0,1-2.67,1.4,11.4,11.4,0,0,1-3.54.51,11.64,11.64,0,0,1-2.85-.32,7.17,7.17,0,0,1-2.2-.92,4.36,4.36,0,0,1-1.4-1.43,3.56,3.56,0,0,1-.5-1.85,4.08,4.08,0,0,1,.74-2.45,5.82,5.82,0,0,1,1.95-1.69,9.48,9.48,0,0,1,2.74-1,16.05,16.05,0,0,1,3.14-.31q.65,0,1.29.05t1.27.15a4.43,4.43,0,0,1-.26-.71,3.17,3.17,0,0,1-.1-.8,4.19,4.19,0,0,1,.17-1.15,7,7,0,0,1,.57-1.33,5.46,5.46,0,0,1-1.53.72,6.74,6.74,0,0,1-1.93.25,5.5,5.5,0,0,1-2-.34,4.59,4.59,0,0,1-1.59-1,4.72,4.72,0,0,1-1.08-1.66,6.26,6.26,0,0,1-.4-2.33,7.07,7.07,0,0,1,.48-2.55,6.7,6.7,0,0,1,3.66-3.81,7.67,7.67,0,0,1,3.12-.59,6.23,6.23,0,0,1,3.44.94h4.95l-.14,1.06a1.26,1.26,0,0,1-.21.56.73.73,0,0,1-.51.31l-2.27.4a6.58,6.58,0,0,1,.25,1A6.19,6.19,0,0,1,231.52,172Zm-3.35,13.63a4.08,4.08,0,0,0-.09-.87,5.19,5.19,0,0,0-.23-.77c-.65-.11-1.26-.19-1.83-.23s-1.11-.07-1.61-.07a11,11,0,0,0-2.56.26,6.17,6.17,0,0,0-1.78.69,3.05,3.05,0,0,0-1,1,2.24,2.24,0,0,0-.34,1.18,2.2,2.2,0,0,0,1.09,2,5.81,5.81,0,0,0,3.09.68,7.07,7.07,0,0,0,2.17-.31,5.64,5.64,0,0,0,1.67-.84,3.92,3.92,0,0,0,1.08-1.23A3,3,0,0,0,228.18,185.64Zm-3.6-8.68a3.38,3.38,0,0,0,1.71-.42,4,4,0,0,0,1.25-1.12,5.22,5.22,0,0,0,.78-1.56,5.82,5.82,0,0,0,.27-1.75,3.27,3.27,0,0,0-.8-2.39,3,3,0,0,0-2.21-.81,3.58,3.58,0,0,0-1.71.4,3.77,3.77,0,0,0-1.24,1.06,4.85,4.85,0,0,0-.76,1.51,5.88,5.88,0,0,0-.26,1.76,3.51,3.51,0,0,0,.78,2.47A2.83,2.83,0,0,0,224.58,177Z"/><path class="cls-18" d="M234.3,185.19l2.18-18.25h1.6a1,1,0,0,1,1.08,1.08l-.27,3.53a11.32,11.32,0,0,1,3.29-3.64,6.72,6.72,0,0,1,3.79-1.22,3.86,3.86,0,0,1,3.16,1.37,6.16,6.16,0,0,1,1.13,4c0,.24,0,.49,0,.74s0,.52-.07.79l-1.37,11.61h-3.2L247,173.58c0-.24,0-.47.06-.69s0-.44,0-.64a3.57,3.57,0,0,0-.55-2.19,2,2,0,0,0-1.72-.71,3.76,3.76,0,0,0-1.76.47,6.87,6.87,0,0,0-1.72,1.32,10.8,10.8,0,0,0-1.54,2.07,14.5,14.5,0,0,0-1.21,2.71l-1,9.27h-3.2Z"/><path class="cls-18" d="M87,212.19H86V199.45H87Z"/><path class="cls-18" d="M95,199.49a.41.41,0,0,1,.15.14l8.24,11c0-.18,0-.35,0-.52V199.45h.81v12.74h-.44a.39.39,0,0,1-.33-.18L95.15,201c0,.18,0,.35,0,.51v10.72h-.8V199.45h.45A.49.49,0,0,1,95,199.49Z"/><path class="cls-18" d="M117.61,201a.25.25,0,0,1-.23.15.52.52,0,0,1-.3-.17,3.91,3.91,0,0,0-.5-.37,4,4,0,0,0-.79-.37,4,4,0,0,0-2.39,0,2.53,2.53,0,0,0-.89.54,2.3,2.3,0,0,0-.54.79,2.47,2.47,0,0,0-.19.95,1.93,1.93,0,0,0,.28,1.07,2.5,2.5,0,0,0,.73.72,4.73,4.73,0,0,0,1,.5l1.18.4c.4.13.79.28,1.18.44a4.16,4.16,0,0,1,1,.6,2.75,2.75,0,0,1,.73.89,2.8,2.8,0,0,1,.28,1.31,4.12,4.12,0,0,1-.28,1.51,3.53,3.53,0,0,1-.8,1.23,3.72,3.72,0,0,1-1.28.82,4.66,4.66,0,0,1-1.73.3,4.88,4.88,0,0,1-2.17-.45,5.1,5.1,0,0,1-1.59-1.22l.25-.4a.32.32,0,0,1,.25-.13.36.36,0,0,1,.21.11l.31.27c.12.1.27.22.43.34a3.62,3.62,0,0,0,.59.34,4.25,4.25,0,0,0,.77.27,4.11,4.11,0,0,0,1,.11,3.74,3.74,0,0,0,1.35-.23,3,3,0,0,0,1-.62,2.71,2.71,0,0,0,.63-.94,3.12,3.12,0,0,0,.22-1.17,2.05,2.05,0,0,0-.28-1.11,2.38,2.38,0,0,0-.72-.73,4.78,4.78,0,0,0-1-.49l-1.18-.39c-.4-.13-.79-.27-1.18-.42a4,4,0,0,1-1-.6,2.77,2.77,0,0,1-.73-.91,3,3,0,0,1-.27-1.36,3.23,3.23,0,0,1,.24-1.23,3.07,3.07,0,0,1,.71-1,3.48,3.48,0,0,1,1.16-.73,4.22,4.22,0,0,1,1.57-.27,4.76,4.76,0,0,1,1.78.31,4.27,4.27,0,0,1,1.44,1Z"/><path class="cls-18" d="M133.05,199.45v.78h-4.47v12h-.92v-12h-4.5v-.78Z"/><path class="cls-18" d="M139.91,212.19H139V199.45h.93Z"/><path class="cls-18" d="M155.73,199.45v.78h-4.47v12h-.92v-12h-4.5v-.78Z"/><path class="cls-18" d="M166.26,211.53a4,4,0,0,0,1.64-.32,3.52,3.52,0,0,0,1.23-.89,3.92,3.92,0,0,0,.77-1.34,5.09,5.09,0,0,0,.27-1.66v-7.87h.92v7.88a5.68,5.68,0,0,1-.33,2,4.7,4.7,0,0,1-1,1.59,4.44,4.44,0,0,1-1.52,1.07,5.41,5.41,0,0,1-4,0,4.41,4.41,0,0,1-1.52-1.07,4.69,4.69,0,0,1-1-1.59,5.67,5.67,0,0,1-.33-2v-7.87h.93v7.87a5,5,0,0,0,.27,1.66,3.93,3.93,0,0,0,.76,1.34,3.54,3.54,0,0,0,1.23.89A3.93,3.93,0,0,0,166.26,211.53Z"/><path class="cls-18" d="M186.69,199.45v.78h-4.47v12h-.92v-12h-4.5v-.78Z"/><path class="cls-18" d="M200.08,199.45v.77h-6.71v5.15H199v.75h-5.58v5.31h6.71v.76h-7.63V199.45h7.63Z"/></svg>