<?xml version="1.0" encoding="utf-8"?>
<!-- Generator: Adobe Illustrator 16.0.0, SVG Export Plug-In . SVG Version: 6.00 Build 0)  -->
<!DOCTYPE svg PUBLIC "-//W3C//DTD SVG 1.1//EN" "http://www.w3.org/Graphics/SVG/1.1/DTD/svg11.dtd">
<svg version="1.1" id="Layer_1" xmlns="http://www.w3.org/2000/svg" xmlns:xlink="http://www.w3.org/1999/xlink" x="0px" y="0px"
	 width="16px" height="16px" viewBox="0 0 16 16" enable-background="new 0 0 16 16" xml:space="preserve">
<g id="text_to_speach_settings">
	<g>
		<path fill="currentColor" d="M4.61,11.785c-2.291-0.367-4.009-2.334-4.009-4.726c0-1.222,0.46-2.334,1.213-3.184C1.653,4.391,1.49,5.155,1.427,5.334
			c-0.201,0.127,0.051,0.63-0.015,0.725c-0.215,0.31-0.215,1.706,0,1.55C1.617,7.46,1.231,7.025,1.583,6.854
			c-0.014,0.402,0.056,0.471,0.43,0.607C2.524,7.647,2.427,8.25,2.427,8.165c0,0.206,0.25-0.159,0.226,0.45
			c0,0,0.126,0.421,0.514,0.421c0,0.259,0,0.646-0.129,0.905c-0.125,0.249,0.231,0.498,0.372,0.516
			c-0.033,0.043-0.071,0.088-0.113,0.131c-0.563,0.562,0.507,0.621,1.314,0.973v-2.63C4.376,8.929,4.197,8.903,4.072,8.777
			C3.813,8.519,3.813,8.648,3.685,8.519C3.555,8.39,3.425,8.648,3.296,8.39C3.167,8.131,2.825,7.724,3.253,7.414
			c0.427-0.31,0.593-0.135,0.807,0.329c0.213,0.465,0.458,0.361,0.458,0.207c0-0.155-0.458-0.361-0.458-0.67
			c0-0.311,0.558,0.253,0.558-0.057c0-0.309,0.51-0.098,0.296-0.408c0.115,0.165,0.007-0.941,0.292-0.941
			c0.428,0,0.777-0.3,0.563-0.455c-0.214-0.155,0.428-0.621,0.214-0.93c-0.214-0.31-1.07-0.31-1.07,0c0,0.31-0.427,0.62-0.641,0.465
			c-0.213-0.155-0.856-0.31,0.214-0.62c1.069-0.31,0.427-0.774,0.427-0.774s0.757-0.252,0.329-0.407
			C4.963,3.05,4.498,2.881,4.15,2.866C4.456,2.573,4.7,2.376,4.816,2.376c0.298,0,0.699-0.003,0.987-0.108
			c0.281,0.022,0.553,0.071,0.817,0.14c0.023,0.343,0.124,1.173,0.594,1.644c0.602,0.601,0-1.203,0.602,0
			c0.57,1.14,0.058,1.609,0.507,2.25c0.037,0,0.324-0.008,0.324-0.008h0.294l0.646-0.015h1.184C10.492,4.187,9.021,2.53,7.059,1.904
			c0.042,0.004,0.081,0.007,0.11,0.007L7.036,1.896C6.523,1.734,5.978,1.647,5.412,1.647C2.423,1.647,0,4.07,0,7.059
			c0,2.727,1.986,4.976,4.61,5.351"/>
	</g>
	<path d="M5.176,7.765c0-0.518,0.424-0.941,0.941-0.941h8.941C15.576,6.824,16,7.247,16,7.765v5.647
		c0,0.518-0.424,0.941-0.941,0.941H6.118c-0.518,0-0.941-0.424-0.941-0.941V7.765z M9.356,11.969
		c-0.139,0.148-0.303,0.221-0.491,0.221c-0.261,0-0.47-0.115-0.633-0.346c-0.162-0.232-0.243-0.621-0.243-1.17
		c0-0.527,0.083-0.906,0.25-1.135C8.405,9.31,8.62,9.195,8.884,9.195c0.185,0,0.344,0.062,0.479,0.188S9.59,9.689,9.636,9.924
		l0.712-0.207c-0.089-0.381-0.229-0.669-0.422-0.863c-0.27-0.272-0.604-0.409-1.004-0.409c-0.49,0-0.881,0.182-1.172,0.546
		C7.415,9.41,7.248,9.99,7.248,10.732c0,0.701,0.166,1.258,0.498,1.672c0.289,0.357,0.666,0.537,1.131,0.537
		c0.369,0,0.681-0.113,0.934-0.336c0.253-0.225,0.435-0.58,0.543-1.068l-0.698-0.27C9.595,11.588,9.494,11.822,9.356,11.969z
		 M13.122,11.969c-0.139,0.148-0.304,0.221-0.493,0.221c-0.259,0-0.469-0.115-0.632-0.346c-0.162-0.232-0.243-0.621-0.243-1.17
		c0-0.527,0.083-0.906,0.25-1.135c0.166-0.229,0.382-0.344,0.645-0.344c0.186,0,0.345,0.062,0.479,0.188s0.227,0.307,0.272,0.541
		l0.712-0.207c-0.089-0.381-0.229-0.669-0.422-0.863c-0.269-0.272-0.604-0.409-1.004-0.409c-0.491,0-0.881,0.182-1.172,0.546
		c-0.335,0.419-0.503,0.999-0.503,1.741c0,0.701,0.167,1.258,0.5,1.672c0.288,0.357,0.665,0.537,1.129,0.537
		c0.369,0,0.682-0.113,0.936-0.336c0.252-0.225,0.433-0.58,0.542-1.068l-0.698-0.27C13.359,11.588,13.26,11.822,13.122,11.969z"/>
</g>
</svg>
