<?xml version="1.0" encoding="utf-8"?>
<!-- Generator: Adobe Illustrator 16.0.0, SVG Export Plug-In . SVG Version: 6.00 Build 0)  -->
<!DOCTYPE svg PUBLIC "-//W3C//DTD SVG 1.1//EN" "http://www.w3.org/Graphics/SVG/1.1/DTD/svg11.dtd">
<svg version="1.1" id="Layer_1" xmlns="http://www.w3.org/2000/svg" xmlns:xlink="http://www.w3.org/1999/xlink" x="0px" y="0px"
	 width="1152px" height="1152px" viewBox="0 0 1152 1152" enable-background="new 0 0 1152 1152" xml:space="preserve">
<g id="side_scroll">
	<g id="contrast_options">
	</g>
	<g>
		<polygon points="1121.505,1152 1091.01,1121.508 1121.505,1091.018 1152,1121.508 		"/>
		<path d="M1028.624,1059.13l-62.386-62.399l30.495-30.49l62.386,62.377L1028.624,1059.13z M903.853,934.353l-62.387-62.379
			l30.496-30.49l62.386,62.378L903.853,934.353z M779.102,809.616l-62.386-62.377l30.494-30.513l62.386,62.397L779.102,809.616z
			 M654.329,684.839l-62.387-62.378l30.518-30.491l62.364,62.378L654.329,684.839z M529.557,560.082l-62.365-62.378l30.495-30.491
			l62.386,62.379L529.557,560.082z M404.806,435.325l-62.386-62.399l30.495-30.491l62.386,62.378L404.806,435.325z M280.055,310.568
			l-62.386-62.378l30.495-30.491l62.386,62.379L280.055,310.568z M155.283,185.812l-62.386-62.378l30.496-30.512l62.386,62.399
			L155.283,185.812z"/>
		<polygon points="30.511,61.034 0.016,30.543 30.511,0.052 61.006,30.543 		"/>
	</g>
</g>
</svg>
