<?xml version="1.0" encoding="utf-8"?>
<!-- Generator: Adobe Illustrator 16.0.0, SVG Export Plug-In . SVG Version: 6.00 Build 0)  -->
<!DOCTYPE svg PUBLIC "-//W3C//DTD SVG 1.1//EN" "http://www.w3.org/Graphics/SVG/1.1/DTD/svg11.dtd">
<svg version="1.1" id="Layer_1" xmlns="http://www.w3.org/2000/svg" xmlns:xlink="http://www.w3.org/1999/xlink" x="0px" y="0px"
	 width="16px" height="16px" viewBox="0 0 16 16" enable-background="new 0 0 16 16" xml:space="preserve">
<g>
	<path fill="#928A85" d="M9.315,5.953c-0.6,2.012-1.104,3.944-1.705,5.84c-0.341,1.072-0.714,2.094-1.186,2.743
		c-0.519,0.73-1.495,1.428-2.663,1.428c-0.829,0-1.641-0.389-1.641-1.248c0-0.536,0.552-1.039,0.991-1.039
		c0.26,0,0.391,0.146,0.456,0.262c0.406,0.728,0.795,1.149,0.975,1.149c0.179,0,0.324-0.242,0.616-1.298
		c0.684-2.515,1.397-5.127,2.128-7.837H5.76c-0.115-0.34,0.049-0.762,0.243-0.842h1.525c0.293-0.94,0.635-1.898,1.122-2.758
		C9.381,1.038,10.551,0,12.158,0c1.216,0,1.722,0.585,1.722,1.33c-0.017,0.796-0.714,1.201-1.039,1.201
		c-0.261,0-0.391-0.194-0.472-0.47c-0.275-1.038-0.633-1.348-0.844-1.348s-0.537,0.391-0.895,1.202
		C10.16,2.936,9.853,4.04,9.56,5.111h1.852c0.114,0.226,0.015,0.714-0.26,0.842H9.315z"/>
</g>
</svg>
