<?xml version="1.0" encoding="utf-8"?>
<!-- Generator: Adobe Illustrator 16.0.0, SVG Export Plug-In . SVG Version: 6.00 Build 0)  -->
<!DOCTYPE svg PUBLIC "-//W3C//DTD SVG 1.1//EN" "http://www.w3.org/Graphics/SVG/1.1/DTD/svg11.dtd">
<svg version="1.1" id="Layer_1" xmlns="http://www.w3.org/2000/svg" xmlns:xlink="http://www.w3.org/1999/xlink" x="0px" y="0px"
	 width="16px" height="16px" viewBox="0 0 16 16" enable-background="new 0 0 16 16" xml:space="preserve">
<g id="text_to_speach_settings">
	<g>
		<g>
			<path d="M9.646,2.208l5.013,4.694l0.395,3.416l-9.435,3.633l0.291-3.527l3.635-1.338l-3.807,0.961L2.313,4.978l3.183,5.515
				l-0.449,3.326l-4.081-6.55l0.793-3.055l7.323-2.146L9.646,2.208z M9.303,1.141L1.667,3.199L0.89,3.793L0.021,6.949l0.137,0.64
				l4.344,7.042l1.509,0.229l9.673-3.689l0.296-0.885l-0.549-3.429l-0.32-0.64l-4.755-4.893L9.303,1.141z"/>
			<g enable-background="new    ">
				<path d="M7.293,6.413L6.944,4.527l2.01,1.322L7.293,6.413 M6.819,3.84L6.214,4.045l0.757,4.113l0.605-0.206L7.385,6.926
					L9.498,6.21l1.097,0.721l0.602-0.205L6.819,3.84"/>
			</g>
		</g>
	</g>
</g>
</svg>
