<?xml version="1.0" encoding="utf-8"?>
<!-- Generator: Adobe Illustrator 16.0.0, SVG Export Plug-In . SVG Version: 6.00 Build 0)  -->
<!DOCTYPE svg PUBLIC "-//W3C//DTD SVG 1.1//EN" "http://www.w3.org/Graphics/SVG/1.1/DTD/svg11.dtd">
<svg version="1.1" id="Layer_1" xmlns="http://www.w3.org/2000/svg" xmlns:xlink="http://www.w3.org/1999/xlink" x="0px" y="0px"
	 width="16px" height="16px" viewBox="0 0 16 16" enable-background="new 0 0 16 16" xml:space="preserve">
<g>
	<path d="M15.988,8.895c0,0.544,0,1.09,0,1.634c-0.005,0.022-0.01,0.048-0.014,0.072c-0.02,0.153-0.029,0.312-0.061,0.464
		c-0.061,0.295-0.174,0.572-0.323,0.834c-0.153,0.269-0.334,0.514-0.544,0.738c-0.108,0.114-0.221,0.226-0.342,0.329
		c-0.177,0.147-0.356,0.294-0.546,0.426c-0.187,0.131-0.379,0.254-0.58,0.36c-0.307,0.162-0.617,0.32-0.937,0.455
		c-0.298,0.125-0.607,0.223-0.914,0.323c-0.173,0.057-0.35,0.108-0.526,0.149c-0.262,0.062-0.523,0.116-0.786,0.168
		c-0.167,0.034-0.336,0.059-0.506,0.082c-0.166,0.021-0.332,0.037-0.499,0.053c-0.219,0.019-0.436,0.038-0.656,0.052
		c-0.145,0.009-0.289,0.009-0.434,0.013c-0.009,0.002-0.018,0.01-0.027,0.014c-0.183,0-0.365,0-0.548,0
		c-0.013-0.004-0.026-0.012-0.04-0.014c-0.136-0.004-0.273-0.006-0.409-0.013c-0.187-0.012-0.374-0.023-0.561-0.04
		c-0.194-0.018-0.388-0.038-0.581-0.064c-0.239-0.035-0.476-0.076-0.713-0.116c-0.458-0.08-0.907-0.196-1.347-0.345
		c-0.33-0.11-0.653-0.241-0.977-0.37c-0.366-0.148-0.715-0.337-1.045-0.554c-0.242-0.159-0.478-0.33-0.699-0.517
		c-0.207-0.175-0.399-0.367-0.58-0.566c-0.165-0.183-0.301-0.392-0.422-0.608c-0.161-0.289-0.275-0.596-0.335-0.921
		C0.026,10.859,0.013,10.785,0,10.711c0-0.645,0-1.289,0-1.933c0.013-0.09,0.023-0.181,0.041-0.269
		c0.076-0.385,0.221-0.743,0.432-1.072C0.672,7.126,0.9,6.839,1.181,6.599C1.35,6.453,1.523,6.312,1.698,6.174
		c0.057-0.045,0.082-0.09,0.081-0.166C1.774,5.575,1.777,5.142,1.776,4.708c0-0.19,0.034-0.375,0.087-0.556
		c0.122-0.419,0.353-0.776,0.649-1.09c0.133-0.141,0.28-0.27,0.43-0.392C3.209,2.451,3.5,2.27,3.808,2.115
		C4,2.019,4.197,1.929,4.395,1.845c0.353-0.149,0.718-0.264,1.09-0.355c0.418-0.103,0.841-0.186,1.271-0.223
		c0.21-0.018,0.42-0.035,0.629-0.052c0.016-0.001,0.031-0.009,0.046-0.013c0.357,0,0.714,0,1.071,0
		C8.512,1.206,8.521,1.213,8.53,1.214c0.219,0.018,0.437,0.029,0.655,0.055c0.237,0.027,0.473,0.064,0.71,0.103
		c0.375,0.062,0.744,0.158,1.106,0.274c0.504,0.162,0.989,0.367,1.444,0.64c0.381,0.228,0.734,0.487,1.035,0.816
		c0.213,0.232,0.392,0.484,0.524,0.771c0.132,0.288,0.205,0.588,0.206,0.904c0.001,0.435,0,0.87,0,1.306
		c0,0.036,0.008,0.06,0.041,0.086c0.182,0.143,0.362,0.287,0.536,0.44c0.119,0.106,0.229,0.225,0.333,0.346
		c0.112,0.129,0.218,0.264,0.316,0.403c0.158,0.222,0.282,0.462,0.375,0.718c0.074,0.205,0.129,0.415,0.149,0.632
		C15.969,8.771,15.979,8.833,15.988,8.895z M13.127,4.79c0-0.046,0.007-0.093-0.001-0.137c-0.054-0.303-0.201-0.562-0.409-0.783
		c-0.131-0.138-0.273-0.265-0.422-0.383c-0.339-0.267-0.719-0.467-1.119-0.625c-0.263-0.104-0.53-0.198-0.803-0.272
		c-0.296-0.081-0.601-0.141-0.902-0.198c-0.183-0.034-0.37-0.05-0.556-0.067C8.684,2.304,8.453,2.282,8.22,2.274
		C8.013,2.269,7.804,2.278,7.596,2.287c-0.193,0.008-0.387,0.019-0.58,0.039C6.795,2.35,6.576,2.385,6.356,2.416
		C6.02,2.463,5.692,2.547,5.369,2.646C4.934,2.779,4.513,2.948,4.12,3.177C3.815,3.354,3.53,3.556,3.292,3.819
		C3.145,3.981,3.018,4.153,2.936,4.357c-0.07,0.176-0.104,0.357-0.072,0.544c0.049,0.298,0.201,0.546,0.397,0.768
		C3.424,5.852,3.608,6.012,3.81,6.15c0.399,0.274,0.833,0.482,1.289,0.644c0.428,0.151,0.865,0.27,1.315,0.337
		c0.293,0.045,0.588,0.083,0.883,0.116c0.158,0.018,0.318,0.024,0.478,0.026C7.963,7.276,8.152,7.271,8.34,7.261
		c0.249-0.013,0.498-0.03,0.747-0.052C9.26,7.193,9.433,7.174,9.603,7.142c0.235-0.044,0.471-0.098,0.704-0.155
		c0.41-0.1,0.807-0.242,1.188-0.423C11.817,6.409,12.122,6.229,12.401,6c0.179-0.145,0.341-0.305,0.472-0.493
		C13.023,5.293,13.134,5.062,13.127,4.79z M1.763,6.813C1.688,6.878,1.621,6.929,1.562,6.988C1.434,7.12,1.309,7.254,1.186,7.391
		c-0.145,0.161-0.26,0.343-0.362,0.535C0.677,8.199,0.579,8.49,0.553,8.799C0.538,8.979,0.56,9.165,0.576,9.348
		c0.02,0.217,0.095,0.418,0.186,0.614c0.127,0.273,0.293,0.521,0.494,0.745c0.189,0.215,0.391,0.418,0.621,0.587
		c0.253,0.183,0.514,0.357,0.785,0.514c0.266,0.154,0.541,0.297,0.824,0.412c0.343,0.141,0.698,0.257,1.051,0.371
		c0.24,0.076,0.486,0.143,0.733,0.194c0.404,0.085,0.812,0.163,1.225,0.199c0.211,0.019,0.422,0.046,0.634,0.062
		c0.181,0.016,0.362,0.025,0.543,0.027c0.258,0.001,0.517-0.006,0.775-0.014c0.181-0.004,0.362-0.014,0.543-0.024
		c0.169-0.012,0.34-0.021,0.508-0.04c0.239-0.03,0.479-0.064,0.717-0.104c0.226-0.04,0.454-0.078,0.676-0.138
		c0.381-0.103,0.762-0.209,1.136-0.336c0.288-0.097,0.567-0.221,0.844-0.348c0.347-0.158,0.677-0.345,0.984-0.568
		c0.218-0.16,0.426-0.333,0.628-0.512c0.108-0.094,0.199-0.211,0.296-0.317c0.167-0.183,0.298-0.392,0.408-0.61
		c0.146-0.285,0.237-0.592,0.249-0.913c0.007-0.181-0.007-0.366-0.04-0.545c-0.055-0.291-0.171-0.563-0.326-0.814
		c-0.204-0.327-0.455-0.614-0.746-0.867c-0.037-0.032-0.077-0.062-0.125-0.1c0,0.297-0.002,0.58,0.001,0.862
		c0.003,0.221-0.036,0.435-0.104,0.644c-0.129,0.398-0.355,0.737-0.641,1.037c-0.123,0.132-0.262,0.246-0.397,0.361
		c-0.259,0.225-0.549,0.399-0.848,0.56c-0.34,0.181-0.69,0.336-1.058,0.448c-0.315,0.097-0.634,0.183-0.953,0.261
		c-0.204,0.051-0.412,0.085-0.621,0.117c-0.163,0.025-0.327,0.04-0.492,0.054c-0.231,0.021-0.463,0.05-0.695,0.05
		c-0.39,0.001-0.78-0.012-1.17-0.023c-0.163-0.006-0.326-0.019-0.488-0.04c-0.216-0.028-0.431-0.066-0.645-0.104
		c-0.356-0.061-0.707-0.15-1.052-0.257c-0.532-0.167-1.044-0.382-1.523-0.669C3.107,9.88,2.735,9.595,2.423,9.235
		c-0.196-0.225-0.36-0.47-0.478-0.746C1.828,8.211,1.765,7.92,1.764,7.618C1.762,7.355,1.763,7.092,1.763,6.813z M3.015,8.19
		C3.009,8.195,3.002,8.201,2.996,8.207c0.102,0.13,0.196,0.269,0.309,0.39c0.106,0.114,0.228,0.216,0.351,0.314
		c0.309,0.247,0.65,0.441,1.014,0.591c0.289,0.119,0.584,0.226,0.884,0.31c0.316,0.091,0.641,0.156,0.964,0.217
		c0.241,0.046,0.487,0.068,0.732,0.093c0.181,0.018,0.362,0.025,0.543,0.026c0.191,0.002,0.382-0.005,0.572-0.013
		c0.146-0.004,0.293-0.012,0.439-0.024c0.196-0.02,0.392-0.038,0.587-0.067c0.208-0.03,0.417-0.062,0.622-0.109
		c0.415-0.096,0.822-0.214,1.215-0.381c0.274-0.118,0.538-0.249,0.79-0.406c0.268-0.166,0.511-0.362,0.718-0.6
		c0.083-0.095,0.152-0.203,0.228-0.304c-0.004-0.004-0.008-0.009-0.013-0.013c-0.016,0.007-0.032,0.014-0.049,0.021
		c-0.193,0.099-0.384,0.205-0.582,0.294c-0.229,0.103-0.461,0.198-0.697,0.284c-0.391,0.145-0.792,0.256-1.201,0.34
		C10.154,9.222,9.886,9.27,9.617,9.312c-0.193,0.03-0.388,0.05-0.581,0.064c-0.244,0.02-0.487,0.034-0.73,0.04
		C8.069,9.42,7.833,9.412,7.596,9.402C7.378,9.396,7.161,9.384,6.944,9.364C6.725,9.344,6.505,9.319,6.288,9.285
		c-0.27-0.042-0.54-0.084-0.805-0.146C5.074,9.043,4.669,8.928,4.274,8.78C3.838,8.617,3.417,8.424,3.015,8.19z"/>
</g>
</svg>
