<?xml version="1.0" encoding="utf-8"?>
<!-- Generator: Adobe Illustrator 16.0.0, SVG Export Plug-In . SVG Version: 6.00 Build 0)  -->
<!DOCTYPE svg PUBLIC "-//W3C//DTD SVG 1.1//EN" "http://www.w3.org/Graphics/SVG/1.1/DTD/svg11.dtd">
<svg version="1.1" id="Layer_1" xmlns="http://www.w3.org/2000/svg" xmlns:xlink="http://www.w3.org/1999/xlink" x="0px" y="0px"
	 width="16px" height="16px" viewBox="0 0 16 16" enable-background="new 0 0 16 16" xml:space="preserve">
<g id="text_to_speach_settings">
	<g>
		<path fill="#5B5552" d="M16.002,9.602V6.401h-2.36c-0.125-0.442-0.3-0.865-0.52-1.259l1.668-1.667l-2.264-2.263l-1.667,1.667
			c-0.394-0.221-0.815-0.394-1.258-0.519V0H6.401v2.361C5.958,2.486,5.536,2.659,5.142,2.879L3.476,1.213L1.211,3.476l1.668,1.667
			C2.659,5.536,2.486,5.959,2.361,6.401H0v3.201h2.361c0.125,0.443,0.298,0.864,0.519,1.258l-1.668,1.667l2.264,2.263l1.667-1.667
			c0.394,0.222,0.816,0.395,1.259,0.52v2.36h3.201v-2.36c0.442-0.125,0.864-0.298,1.258-0.52l1.667,1.667l2.264-2.263l-1.668-1.667
			c0.222-0.394,0.395-0.814,0.52-1.258H16.002z M12.802,8.001c0,2.648-2.153,4.801-4.801,4.801c-2.647,0-4.801-2.152-4.801-4.801
			C3.2,5.355,5.354,3.2,8.001,3.2C10.648,3.2,12.802,5.355,12.802,8.001z"/>
		<path fill="#5B5552" d="M8.001,5.334v2.667H5.334c0,1.473,1.194,2.667,2.667,2.667c1.473,0,2.667-1.194,2.667-2.667
			C10.668,6.528,9.474,5.334,8.001,5.334z"/>
	</g>
</g>
</svg>
