<?xml version="1.0" encoding="utf-8"?>
<!-- Generator: Adobe Illustrator 16.0.0, SVG Export Plug-In . SVG Version: 6.00 Build 0)  -->
<!DOCTYPE svg PUBLIC "-//W3C//DTD SVG 1.1//EN" "http://www.w3.org/Graphics/SVG/1.1/DTD/svg11.dtd">
<svg version="1.1" id="Layer_1" xmlns="http://www.w3.org/2000/svg" xmlns:xlink="http://www.w3.org/1999/xlink" x="0px" y="0px"
	 width="16px" height="16px" viewBox="0 0 16 16" enable-background="new 0 0 16 16" xml:space="preserve">
<g>
	<g>
		<g>
			<rect x="15.156" y="5.028" fill="#434343" width="0.844" height="0.844"/>
		</g>
		<g>
			<rect x="15.156" y="6.715" fill="#434343" width="0.844" height="0.844"/>
		</g>
		<g>
			<rect x="15.156" y="8.403" fill="#434343" width="0.844" height="0.843"/>
		</g>
		<g>
			<rect x="15.156" y="10.09" fill="#434343" width="0.844" height="0.844"/>
		</g>
		<g>
			<rect x="13.469" y="5.028" fill="#434343" width="0.844" height="0.844"/>
		</g>
		<g>
			<rect x="13.469" y="6.715" fill="#434343" width="0.844" height="0.844"/>
		</g>
		<g>
			<rect x="13.469" y="8.403" fill="#434343" width="0.844" height="0.843"/>
		</g>
		<g>
			<rect x="13.469" y="10.09" fill="#434343" width="0.844" height="0.844"/>
		</g>
		<g>
			<rect x="11.781" y="5.028" fill="#434343" width="0.844" height="0.844"/>
		</g>
		<g>
			<rect x="11.781" y="6.715" fill="#434343" width="0.844" height="0.844"/>
		</g>
		<g>
			<rect x="11.781" y="8.403" fill="#434343" width="0.844" height="0.843"/>
		</g>
		<g>
			<rect x="11.781" y="10.09" fill="#434343" width="0.844" height="0.844"/>
		</g>
		<g>
			<rect x="10.094" y="5.028" fill="#434343" width="0.844" height="0.844"/>
		</g>
		<g>
			<rect x="10.094" y="6.715" fill="#434343" width="0.844" height="0.844"/>
		</g>
		<g>
			<rect x="10.094" y="8.403" fill="#434343" width="0.844" height="0.843"/>
		</g>
		<g>
			<rect x="10.094" y="10.09" fill="#434343" width="0.844" height="0.844"/>
		</g>
		<g>
			<rect x="8.406" y="5.028" fill="#434343" width="0.844" height="0.844"/>
		</g>
		<g>
			<rect x="8.406" y="6.715" fill="#434343" width="0.844" height="0.844"/>
		</g>
		<g>
			<rect x="8.406" y="8.403" fill="#434343" width="0.844" height="0.843"/>
		</g>
		<g>
			<rect x="8.406" y="10.09" fill="#434343" width="0.844" height="0.844"/>
		</g>
		<g>
			<rect x="6.719" y="5.028" fill="#434343" width="0.844" height="0.844"/>
		</g>
		<g>
			<rect x="6.719" y="6.715" fill="#434343" width="0.844" height="0.844"/>
		</g>
		<g>
			<rect x="6.719" y="8.403" fill="#434343" width="0.844" height="0.843"/>
		</g>
		<g>
			<rect x="6.719" y="10.09" fill="#434343" width="0.844" height="0.844"/>
		</g>
		<g>
			<rect x="5.031" y="5.028" fill="#434343" width="0.844" height="0.844"/>
		</g>
		<g>
			<rect x="5.031" y="6.715" fill="#434343" width="0.844" height="0.844"/>
		</g>
		<g>
			<rect x="5.031" y="8.403" fill="#434343" width="0.844" height="0.843"/>
		</g>
		<g>
			<rect x="5.031" y="10.09" fill="#434343" width="0.844" height="0.844"/>
		</g>
		<g>
			<rect x="3.344" y="5.028" fill="#434343" width="0.844" height="0.844"/>
		</g>
		<g>
			<rect x="3.344" y="6.715" fill="#434343" width="0.844" height="0.844"/>
		</g>
		<g>
			<rect x="3.344" y="8.403" fill="#434343" width="0.844" height="0.843"/>
		</g>
		<g>
			<rect x="3.344" y="10.09" fill="#434343" width="0.844" height="0.844"/>
		</g>
		<g>
			<rect x="1.656" y="5.028" fill="#434343" width="0.844" height="0.844"/>
		</g>
		<g>
			<rect x="1.656" y="6.715" fill="#434343" width="0.844" height="0.844"/>
		</g>
		<g>
			<rect x="1.656" y="8.403" fill="#434343" width="0.844" height="0.843"/>
		</g>
		<g>
			<rect x="1.656" y="10.09" fill="#434343" width="0.844" height="0.844"/>
		</g>
		<g>
			<rect x="-0.031" y="5.028" fill="#434343" width="0.844" height="0.844"/>
		</g>
		<g>
			<rect x="-0.031" y="6.715" fill="#434343" width="0.844" height="0.844"/>
		</g>
		<g>
			<rect x="-0.031" y="8.403" fill="#434343" width="0.844" height="0.843"/>
		</g>
		<g>
			<rect x="-0.031" y="10.09" fill="#434343" width="0.844" height="0.844"/>
		</g>
	</g>
</g>
</svg>
