<?xml version="1.0" encoding="utf-8"?>
<!-- Generator: Adobe Illustrator 16.0.0, SVG Export Plug-In . SVG Version: 6.00 Build 0)  -->
<!DOCTYPE svg PUBLIC "-//W3C//DTD SVG 1.1//EN" "http://www.w3.org/Graphics/SVG/1.1/DTD/svg11.dtd">
<svg version="1.1" id="Layer_1" xmlns="http://www.w3.org/2000/svg" xmlns:xlink="http://www.w3.org/1999/xlink" x="0px" y="0px"
	 width="16px" height="16px" viewBox="0 0 16 16" enable-background="new 0 0 16 16" xml:space="preserve">
<g id="text_to_speach_settings">
	<g>
		<path fill="#020202" d="M15.263,13.422l-2.919-2.919c-0.18-0.182-0.379-0.326-0.583-0.436c1.715-2.507,1.462-5.955-0.765-8.181
			C9.738,0.629,8.09,0,6.441,0S3.145,0.629,1.888,1.886c-2.516,2.516-2.516,6.594-0.001,9.109c1.258,1.259,2.906,1.887,4.555,1.887
			c1.269,0,2.537-0.377,3.628-1.122c0.107,0.204,0.253,0.403,0.435,0.583l2.919,2.978c0.715,0.717,1.715,0.828,2.222,0.322
			C16.15,15.137,15.977,14.136,15.263,13.422z M10.159,10.095c-0.011,0.011-0.025,0.016-0.036,0.025
			c-0.012,0.012-0.018,0.025-0.028,0.038c-0.98,0.965-2.275,1.497-3.653,1.497c-1.393,0-2.703-0.543-3.688-1.527
			c-0.075-0.075-0.142-0.155-0.211-0.233l0.489-1.307h3.222l0.69,1.84h0.92l-2.76-7.361H4.183L1.937,9.056
			C0.779,7.062,1.048,4.46,2.755,2.753c0.984-0.985,2.293-1.527,3.687-1.527c1.392,0,2.702,0.542,3.688,1.528
			c0.984,0.984,1.527,2.293,1.527,3.687C11.656,7.818,11.124,9.113,10.159,10.095z M3.377,7.974l1.265-3.374l1.266,3.374H3.377z"/>
	</g>
</g>
</svg>
