<?xml version="1.0" encoding="utf-8"?>
<!-- Generator: Adobe Illustrator 16.0.0, SVG Export Plug-In . SVG Version: 6.00 Build 0)  -->
<!DOCTYPE svg PUBLIC "-//W3C//DTD SVG 1.1//EN" "http://www.w3.org/Graphics/SVG/1.1/DTD/svg11.dtd">
<svg version="1.1" id="Layer_1" xmlns="http://www.w3.org/2000/svg" xmlns:xlink="http://www.w3.org/1999/xlink" x="0px" y="0px"
	 width="16px" height="16px" viewBox="0 0 16 16" enable-background="new 0 0 16 16" xml:space="preserve">
<g>
	<path fill="#E6E6E6" d="M8,3.074c3.338,0,6.266,1.755,6.266,3.758c0,1.803-3.316,3.816-5.023,3.816
		c-1.469,0-3.963-0.328-3.963-0.328c-0.039-0.016-0.078-0.03-0.117-0.042C3.145,9.634,1.734,8.218,1.734,6.833
		C1.734,4.83,4.662,3.074,8,3.074 M8,1.365c-4.402,0-7.974,2.449-7.974,5.467c0,2.198,1.89,4.203,4.616,5.072l6.307,2.729
		L9.15,12.189c3.89-0.363,6.823-2.59,6.823-5.357C15.974,3.814,12.403,1.365,8,1.365L8,1.365z"/>
</g>
</svg>
