<?xml version="1.0" encoding="utf-8"?>
<!-- Generator: Adobe Illustrator 16.0.0, SVG Export Plug-In . SVG Version: 6.00 Build 0)  -->
<!DOCTYPE svg PUBLIC "-//W3C//DTD SVG 1.1//EN" "http://www.w3.org/Graphics/SVG/1.1/DTD/svg11.dtd">
<svg version="1.1" id="Layer_1" xmlns="http://www.w3.org/2000/svg" xmlns:xlink="http://www.w3.org/1999/xlink" x="0px" y="0px"
	 width="16px" height="16px" viewBox="0 0 16 16" enable-background="new 0 0 16 16" xml:space="preserve">
<g>
	<path fill="#928A85" d="M8,1.368c-4.402,0-7.971,2.447-7.971,5.465c0,2.196,1.889,4.201,4.615,5.07l6.304,2.729L9.15,12.188
		c3.888-0.364,6.82-2.59,6.82-5.355C15.971,3.815,12.401,1.368,8,1.368L8,1.368z M3.445,7.231c0-0.629,0.51-1.139,1.139-1.139
		c0.628,0,1.138,0.51,1.138,1.139c0,0.627-0.51,1.139-1.138,1.139C3.955,8.37,3.445,7.858,3.445,7.231z M6.86,7.231
		c0-0.629,0.51-1.139,1.139-1.139c0.628,0,1.139,0.51,1.139,1.139c0,0.627-0.511,1.139-1.139,1.139C7.37,8.37,6.86,7.858,6.86,7.231
		z M10.276,7.231c0-0.629,0.51-1.139,1.138-1.139c0.629,0,1.139,0.51,1.139,1.139c0,0.627-0.51,1.139-1.139,1.139
		C10.786,8.37,10.276,7.858,10.276,7.231z"/>
</g>
</svg>
